#!OML:ASF C:\Vicon Data\Big\jianyuan-12\jianyuan\Session 1\Capture.male.ASF
:FULLY-SPECIFIED
:DEGREES
237
root -6.350034 17.126610 -5.805117 6.492300 3.794035 8.104873
lowerback -9.429641 -2.444556 -10.019450 
upperback 1.990070 -1.980039 -1.508211 
thorax 7.750364 -1.400096 3.695529 
lowerneck -4.950788 -4.685021 -5.927726 
upperneck 7.048346 -6.432011 7.181957 
head 3.328948 -3.084665 2.839990 
rclavicle 0.000000 0.000000 
rhumerus -50.670806 -34.258277 -67.183082 
rradius 32.397251 
rwrist 39.820152 
rhand -18.039404 -4.378392 
rfingers 0.000000 
rthumb 8.232302 -34.198008 
lclavicle 0.000000 0.000000 
lhumerus -17.824481 15.865334 87.276715 
lradius 37.704119 
lwrist -34.040827 
lhand -8.537575 5.036350 
lfingers 0.000000 
lthumb 17.391525 34.278262 
rfemur -38.771376 1.416548 7.076865 
rtibia 27.211858 
rfoot -17.895860 -5.438903 
rtoes -16.363568 
lfemur 6.685687 -3.215860 -34.144263 
ltibia 1.596668 
lfoot -18.949784 5.072655 
ltoes -22.502559 
238
root -6.348990 17.123878 -5.743472 6.458203 3.863050 8.160669
lowerback -9.380666 -2.468037 -10.099162 
upperback 1.993084 -2.008463 -1.497146 
thorax 7.733688 -1.417298 3.748173 
lowerneck -4.935981 -4.680010 -5.917736 
upperneck 7.033983 -6.425222 7.173883 
head 3.321149 -3.081757 2.836775 
rclavicle 0.000000 0.000000 
rhumerus -50.728898 -34.224661 -67.100525 
rradius 32.346428 
rwrist 40.023707 
rhand -17.997889 -4.344007 
rfingers 0.000000 
rthumb 8.272387 -34.162030 
lclavicle 0.000000 0.000000 
lhumerus -17.788450 15.620615 87.356755 
lradius 37.908256 
lwrist -33.676615 
lhand -8.503207 5.178583 
lfingers 0.000000 
lthumb 17.424607 34.417567 
rfemur -38.735888 1.791044 6.784903 
rtibia 26.685705 
rfoot -17.984606 -5.414579 
rtoes -16.326598 
lfemur 7.768912 -3.203705 -34.191718 
ltibia 0.000000 
lfoot -18.269481 5.217680 
ltoes -22.561583 
239
root -6.348192 17.121199 -5.681586 6.505972 3.935504 8.229816
lowerback -9.422784 -2.498829 -10.183291 
upperback 1.978449 -2.035639 -1.489080 
thorax 7.750477 -1.434730 3.797818 
lowerneck -4.954236 -4.676591 -5.944153 
upperneck 7.062260 -6.420816 7.191587 
head 3.333757 -3.079049 2.846004 
rclavicle 0.000000 0.000000 
rhumerus -50.775451 -34.214251 -67.004700 
rradius 32.275495 
rwrist 40.150884 
rhand -18.026754 -4.310247 
rfingers 0.000000 
rthumb 8.244483 -34.129376 
lclavicle 0.000000 0.000000 
lhumerus -17.729472 15.593963 87.428465 
lradius 38.010009 
lwrist -33.734480 
lhand -8.588520 5.023705 
lfingers 0.000000 
lthumb 17.342517 34.269962 
rfemur -38.805714 2.122373 6.494223 
rtibia 26.235033 
rfoot -18.134263 -5.453666 
rtoes -16.410902 
lfemur 7.954089 -3.216368 -34.247029 
ltibia 0.000000 
lfoot -18.341963 5.149782 
ltoes -22.544368 
240
root -6.347526 17.116687 -5.618255 6.524660 3.994667 8.267620
lowerback -9.455702 -2.570586 -10.249669 
upperback 1.990560 -2.121401 -1.425753 
thorax 7.801329 -1.483004 3.886164 
lowerneck -5.047854 -4.650590 -6.156217 
upperneck 7.080605 -6.368394 7.246169 
head 3.359698 -3.053841 2.897339 
rclavicle 0.000000 0.000000 
rhumerus -50.689887 -34.131639 -66.916953 
rradius 32.172997 
rwrist 40.372554 
rhand -18.140686 -4.201455 
rfingers 0.000000 
rthumb 8.134540 -34.024871 
lclavicle 0.000000 0.000000 
lhumerus -17.642312 15.706984 87.527769 
lradius 38.108301 
lwrist -33.751214 
lhand -8.653315 4.850770 
lfingers 0.000000 
lthumb 17.280135 34.102496 
rfemur -38.853143 2.473706 6.240103 
rtibia 25.861611 
rfoot -18.210683 -5.494354 
rtoes -16.160323 
lfemur 8.167694 -3.206219 -34.273660 
ltibia 0.000000 
lfoot -18.413918 5.110577 
ltoes -22.632441 
241
root -6.345571 17.110921 -5.554726 6.506203 4.044737 8.333064
lowerback -9.445609 -2.595416 -10.286141 
upperback 1.997727 -2.149516 -1.457917 
thorax 7.807995 -1.498365 3.867043 
lowerneck -5.030353 -4.636257 -6.142463 
upperneck 7.036979 -6.351286 7.275606 
head 3.343042 -3.044614 2.905787 
rclavicle 0.000000 0.000000 
rhumerus -50.730652 -34.180073 -66.875104 
rradius 32.148612 
rwrist 40.472784 
rhand -18.239964 -4.185109 
rfingers 0.000000 
rthumb 8.038703 -34.012228 
lclavicle 0.000000 0.000000 
lhumerus -17.588570 15.476890 87.542834 
lradius 38.238868 
lwrist -33.581419 
lhand -8.642006 4.893884 
lfingers 0.000000 
lthumb 17.291028 34.144700 
rfemur -38.874105 2.698248 6.024821 
rtibia 25.559056 
rfoot -18.293870 -5.408198 
rtoes -15.756041 
lfemur 8.437981 -3.180107 -34.340668 
ltibia 0.000000 
lfoot -18.486911 5.068627 
ltoes -22.886340 
242
root -6.347150 17.105253 -5.490157 6.459637 4.090016 8.310788
lowerback -9.431365 -2.584087 -10.283389 
upperback 2.022511 -2.134948 -1.455447 
thorax 7.824647 -1.492720 3.870428 
lowerneck -5.031809 -4.658988 -5.978470 
upperneck 7.001209 -6.382843 7.161520 
head 3.325864 -3.060461 2.843210 
rclavicle 0.000000 0.000000 
rhumerus -50.801663 -34.236700 -66.845348 
rradius 32.210077 
rwrist 40.420873 
rhand -18.067703 -4.148117 
rfingers 0.000000 
rthumb 8.204956 -33.968780 
lclavicle 0.000000 0.000000 
lhumerus -17.521261 15.235442 87.583751 
lradius 38.341952 
lwrist -33.437969 
lhand -8.696656 4.912660 
lfingers 0.000000 
lthumb 17.238443 34.168074 
rfemur -38.855176 2.915446 5.946053 
rtibia 25.275810 
rfoot -18.373076 -5.357670 
rtoes -14.961315 
lfemur 8.732759 -3.136471 -34.299234 
ltibia 0.000000 
lfoot -18.551546 5.022041 
ltoes -23.226904 
243
root -6.345778 17.097219 -5.427611 6.517101 4.156406 8.387912
lowerback -9.475740 -2.603247 -10.325372 
upperback 1.986504 -2.150502 -1.493456 
thorax 7.813750 -1.499887 3.849746 
lowerneck -4.991075 -4.665043 -5.821495 
upperneck 6.998413 -6.397107 7.059613 
head 3.310972 -3.068392 2.787184 
rclavicle 0.000000 0.000000 
rhumerus -50.882902 -34.261834 -66.828731 
rradius 32.260645 
rwrist 40.271123 
rhand -18.001466 -4.199343 
rfingers 0.000000 
rthumb 8.268912 -34.017531 
lclavicle 0.000000 0.000000 
lhumerus -17.538714 15.049799 87.566971 
lradius 38.484054 
lwrist -33.340030 
lhand -8.688048 5.024263 
lfingers 0.000000 
lthumb 17.246718 34.278904 
rfemur -38.927484 2.930935 5.825539 
rtibia 25.040046 
rfoot -18.447198 -5.303987 
rtoes -15.181817 
lfemur 8.898103 -3.146342 -34.374639 
ltibia 0.000000 
lfoot -18.573019 5.014260 
ltoes -23.601933 
244
root -6.348642 17.092646 -5.363226 6.470311 4.228598 8.409370
lowerback -9.430718 -2.661758 -10.406719 
upperback 1.998229 -2.226328 -1.442192 
thorax 7.818430 -1.542049 3.937772 
lowerneck -5.004699 -4.636344 -6.007275 
upperneck 6.983012 -6.352547 7.185705 
head 3.315552 -3.046029 2.857636 
rclavicle 0.000000 0.000000 
rhumerus -50.821542 -34.124169 -66.826412 
rradius 32.258663 
rwrist 40.236423 
rhand -17.744971 -4.175434 
rfingers 0.000000 
rthumb 8.516457 -33.983670 
lclavicle 0.000000 0.000000 
lhumerus -17.550906 15.010686 87.603985 
lradius 38.670077 
lwrist -33.159832 
lhand -8.593810 4.995724 
lfingers 0.000000 
lthumb 17.337376 34.242444 
rfemur -38.856180 3.128153 5.716378 
rtibia 24.827629 
rfoot -18.738605 -5.447031 
rtoes -15.090516 
lfemur 9.180174 -3.133848 -34.366970 
ltibia 0.000000 
lfoot -18.600091 4.996263 
ltoes -23.891645 
245
root -6.348333 17.089150 -5.299035 6.470184 4.268993 8.359399
lowerback -9.459758 -2.726944 -10.382149 
upperback 2.023649 -2.314459 -1.361565 
thorax 7.878882 -1.588392 3.993272 
lowerneck -5.110803 -4.601446 -6.173746 
upperneck 6.958064 -6.286350 7.219461 
head 3.327421 -3.013502 2.896183 
rclavicle 0.000000 0.000000 
rhumerus -50.679319 -34.057546 -66.788045 
rradius 32.162367 
rwrist 40.486943 
rhand -17.789764 -4.086660 
rfingers 0.000000 
rthumb 8.473214 -33.896636 
lclavicle 0.000000 0.000000 
lhumerus -17.532856 14.894450 87.678640 
lradius 38.919558 
lwrist -32.858282 
lhand -8.561302 5.108538 
lfingers 0.000000 
lthumb 17.368656 34.352537 
rfemur -38.846636 3.260047 5.730657 
rtibia 24.646472 
rfoot -18.868259 -5.662737 
rtoes -15.329507 
lfemur 9.414128 -3.095850 -34.289007 
ltibia 0.000000 
lfoot -18.647625 4.925416 
ltoes -24.038120 
246
root -6.345402 17.081114 -5.236962 6.485260 4.317280 8.407689
lowerback -9.464877 -2.748466 -10.416658 
upperback 2.020083 -2.338504 -1.364310 
thorax 7.883367 -1.601706 4.005128 
lowerneck -5.115815 -4.599813 -6.177191 
upperneck 6.957400 -6.283907 7.223520 
head 3.328126 -3.012119 2.897998 
rclavicle 0.000000 0.000000 
rhumerus -50.670535 -34.060358 -66.731595 
rradius 32.080478 
rwrist 40.662443 
rhand -17.937726 -4.047046 
rfingers 0.000000 
rthumb 8.330451 -33.862797 
lclavicle 0.000000 0.000000 
lhumerus -17.493701 14.770843 87.721981 
lradius 38.995260 
lwrist -32.768029 
lhand -8.576794 5.021124 
lfingers 0.000000 
lthumb 17.353785 34.266437 
rfemur -38.828554 3.174887 5.697787 
rtibia 24.498171 
rfoot -18.961051 -5.644246 
rtoes -15.719536 
lfemur 9.642535 -3.075400 -34.330933 
ltibia 0.000000 
lfoot -18.684850 4.873447 
ltoes -24.106440 
